<svg xmlns="http://www.w3.org/2000/svg" width="32" height="32" viewBox="0 0 32 32"><g transform="translate(0 -1020.362)"><path fill="#2b4255" style="line-height:normal;text-indent:0;text-align:start;text-decoration-line:none;text-decoration-style:solid;text-decoration-color:#000;text-transform:none;block-progression:tb;isolation:auto;mix-blend-mode:normal" d="m 15,1022.3613 c -2.75747,0 -4.996094,2.2216 -4.996094,4.9668 l 0,5.5235 a 0.50005,0.50005 0 1 0 1,0 l 0,-5.5235 c 0,-2.2051 1.772004,-3.9668 3.996094,-3.9668 2.224101,0 3.996094,1.7617 3.996094,3.9668 l 0,5.5235 a 0.50005,0.50005 0 1 0 1,0 l 0,-5.5235 c 0,-2.7452 -2.238615,-4.9668 -4.996094,-4.9668 z" color="#000" font-family="sans-serif" font-weight="400" overflow="visible"/><path fill="#e42c34" d="m 9.0000305,1029.3621 16.0000005,0 c 0.554,0 1,0.446 1,1 l 0,20 c 0,0.554 -0.446,1 -1,1 l -16.0000005,0 c -0.554,0 -1,-0.446 -1,-1 l 0,-20 c 0,-0.554 0.446,-1 1,-1 z"/><path fill="#fcd062" d="m 8.0555861,1029.3621 16.8888889,0 c 0.584778,0 1.055556,0.446 1.055556,1 l 0,20 c 0,0.554 -0.470778,1 -1.055556,1 l -16.8888889,0 c -0.5847778,0 -1.0555556,-0.446 -1.0555556,-1 l 0,-20 c 0,-0.554 0.4707778,-1 1.0555556,-1 z"/><path fill="#e6e6e6" d="M13.500031 1032.8621a1 1 0 0 1-1 1 1 1 0 0 1-1-1 1 1 0 0 1 1-1 1 1 0 0 1 1 1zM22.500031 1032.8621a1 1 0 0 1-1 1 1 1 0 0 1-1-1 1 1 0 0 1 1-1 1 1 0 0 1 1 1z"/><path fill="#2b4255" style="line-height:normal;text-indent:0;text-align:start;text-decoration-line:none;text-decoration-style:solid;text-decoration-color:#000;text-transform:none;block-progression:tb;isolation:auto;mix-blend-mode:normal" d="m 17,1022.3652 c -2.75747,0 -4.996094,2.2216 -4.996094,4.9668 l 0,5.5235 a 0.50005,0.50005 0 1 0 1,0 l 0,-5.5235 c 0,-2.2051 1.772004,-3.9668 3.996094,-3.9668 2.224101,0 3.996094,1.7617 3.996094,3.9668 l 0,5.5235 a 0.50005,0.50005 0 1 0 1,0 l 0,-5.5235 c 0,-2.7452 -2.238615,-4.9668 -4.996094,-4.9668 z" color="#000" font-family="sans-serif" font-weight="400" overflow="visible"/><path fill="#f8b84e" d="m 6,1029.3622 c -0.554,0 -1,0.446 -1,1 l 0,20 c 0,0.554 0.446,1 1,1 l 3,0 c -0.554,0 -1,-0.446 -1,-1 l 0,-20 c 0,-0.554 0.446,-1 1,-1 z"/><path fill="#f17f53" d="m 6,1029.3622 c -0.554,0 -1,0.446 -1,1 l 0,0.01 a 1.4999893,1.2333082 0 0 0 0.75,1.0606 1.4999893,1.2333082 0 0 0 1.5,0 1.4999893,1.2333082 0 0 0 0.75,-1.0606 1.4999893,1.2333082 0 0 0 0,-0.01 c 0,-0.554 0.446,-1 1,-1 l -3,0 z"/><path fill="#576d7e" style="isolation:auto;mix-blend-mode:normal" d="m 17.10027,1040.6368 c -0.38778,0 -0.69997,0.3131 -0.69997,0.7021 l 0,2.8082 -0.78747,0 c -0.33931,0 -0.61247,0.3132 -0.61247,0.7021 l 0,0.064 c 0,0.01 0.002,0.01 0.002,0.01 a 3.4998388,3.5103533 0 0 0 1.74787,2.9687 3.4998388,3.5103533 0 0 0 3.49984,0 A 3.4998388,3.5103533 0 0 0 22,1044.8588 l 0,-0.709 c 0,-0.389 -0.27317,-0.7021 -0.61248,-0.7021 l -3.58734,0 0,-2.1061 c 0,-0.389 -0.31218,-0.7021 -0.69997,-0.7021 z" color="#000" overflow="visible"/><path fill="#2b4255" fill-rule="evenodd" style="line-height:normal;text-indent:0;text-align:start;text-decoration-line:none;text-decoration-style:solid;text-decoration-color:#000;text-transform:none;block-progression:tb;isolation:auto;mix-blend-mode:normal" d="M17 1036.8613l0 2 1 0 0-2-1 0zM20.414062 1038.3008L19 1039.7148l.707031.709 1.414063-1.416-.707032-.707zM14.585938 1038.2402l-.707032.7071 1.414063 1.414.707031-.707-1.414062-1.4141zM13 1041.8613l0 1 2 0 0-1-2 0z" color="#000" font-family="sans-serif" font-weight="400" overflow="visible"/></g></svg>